<?xml version="1.0" encoding="utf-8"?>
<svg width="538" height="73" viewBox="0 0 538 73" fill="none" stroke="none" version="1.1" xmlns:xlink="http://www.w3.org/1999/xlink" xmlns="http://www.w3.org/2000/svg">
  <g id="SingleElement">
    <rect id="Retângulo" width="538" height="73" style="fill:#E71D36;fill-rule:evenodd;fill-opacity:0.8;mix-blend-mode:normal;" />
    <rect id="Retângulo" width="12" height="73" style="fill:#E71D36;fill-rule:evenodd;mix-blend-mode:normal;" />
    <g style="mix-blend-mode:normal;" transform="translate(15 11)">
      <path d="M0.363636 15.5L8.06818 2.40909L15.7727 15.5L0.363636 15.5ZM7.375 10.6364L8.76136 10.6364L8.86364 6.77273L7.27273 6.77273L7.375 10.6364ZM8.06818 14.0341Q8.50568 14.0341 8.81534 13.7244Q9.125 13.4148 9.125 12.9773Q9.125 12.5398 8.81534 12.2301Q8.50568 11.9205 8.06818 11.9205Q7.63068 11.9205 7.32102 12.2301Q7.01136 12.5398 7.01136 12.9773Q7.01136 13.4148 7.32102 13.7244Q7.63068 14.0341 8.06818 14.0341ZM22.5227 15.5L21.0455 15.5L25.3182 3.86364L26.7727 3.86364L31.0455 15.5L29.5682 15.5L28.3977 12.2045L23.6932 12.2045L22.5227 15.5ZM24.1364 10.9545L27.9545 10.9545L26.0909 5.70455L26 5.70455L24.1364 10.9545ZM30.8636 5.11364L30.8636 3.86364L39.5909 3.86364L39.5909 5.11364L35.9318 5.11364L35.9318 15.5L34.5227 15.5L34.5227 5.11364L30.8636 5.11364ZM41.7727 15.5L41.7727 3.86364L48.7955 3.86364L48.7955 5.11364L43.1818 5.11364L43.1818 9.04545L48.4318 9.04545L48.4318 10.2955L43.1818 10.2955L43.1818 14.25L48.8864 14.25L48.8864 15.5L41.7727 15.5ZM60.5682 3.86364L60.5682 15.5L59.2046 15.5L52.8636 6.36364L52.75 6.36364L52.75 15.5L51.3409 15.5L51.3409 3.86364L52.7046 3.86364L59.0682 13.0227L59.1818 13.0227L59.1818 3.86364L60.5682 3.86364ZM72.75 7.5L71.3409 7.5Q71.1705 6.69318 70.6875 6.14205Q70.2046 5.59091 69.5227 5.30682Q68.8409 5.02273 68.0682 5.02273Q67.0114 5.02273 66.1563 5.55682Q65.3011 6.09091 64.7983 7.13068Q64.2955 8.17045 64.2955 9.68182Q64.2955 11.1932 64.7983 12.233Q65.3011 13.2727 66.1563 13.8068Q67.0114 14.3409 68.0682 14.3409Q68.8409 14.3409 69.5227 14.0568Q70.2046 13.7727 70.6875 13.2216Q71.1705 12.6705 71.3409 11.8636L72.75 11.8636Q72.5341 13.0568 71.8693 13.9063Q71.2046 14.7557 70.2216 15.2074Q69.2386 15.6591 68.0682 15.6591Q66.5796 15.6591 65.4205 14.9318Q64.2614 14.2045 63.5966 12.8636Q62.9318 11.5227 62.9318 9.68182Q62.9318 7.84091 63.5966 6.5Q64.2614 5.15909 65.4205 4.43182Q66.5796 3.70455 68.0682 3.70455Q69.2386 3.70455 70.2216 4.15625Q71.2046 4.60795 71.8693 5.45739Q72.5341 6.30682 72.75 7.5ZM67.4773 15.5455L68.5909 15.5455L68.5 16Q68.9432 16.0682 69.3125 16.3722Q69.6818 16.6761 69.6818 17.3409Q69.6818 18.0739 69.0767 18.5369Q68.4716 19 67.2955 19L67.25 18.1136Q67.7784 18.1136 68.1278 17.946Q68.4773 17.7784 68.4773 17.3864Q68.4773 16.9943 68.1875 16.8523Q67.8977 16.7102 67.25 16.6591L67.4773 15.5455ZM75.5 15.5L74.0227 15.5L78.2955 3.86364L79.75 3.86364L84.0227 15.5L82.5455 15.5L81.375 12.2045L76.6705 12.2045L75.5 15.5ZM77.1136 10.9545L80.9318 10.9545L79.0682 5.70455L78.9773 5.70455L77.1136 10.9545ZM77.2727 2.70455L76.2273 2.65909Q76.2273 1.78977 76.7244 1.2358Q77.2216 0.68182 77.9546 0.681818Q78.3864 0.68182 78.696 0.863636Q79.0057 1.04546 79.3097 1.22727Q79.6136 1.40909 80.0227 1.40909Q80.3466 1.40909 80.571 1.15625Q80.7955 0.90341 80.7955 0.545454L81.8182 0.636363Q81.8182 1.52273 81.321 2.04545Q80.8239 2.56818 80.0909 2.56818Q79.6989 2.56818 79.4432 2.45739Q79.1875 2.34659 78.9886 2.20455Q78.7898 2.0625 78.5682 1.9517Q78.3466 1.84091 78.0227 1.84091Q77.6989 1.84091 77.4858 2.09375Q77.2727 2.34659 77.2727 2.70455ZM95.1136 9.68182Q95.1136 11.5227 94.4489 12.8636Q93.7841 14.2045 92.625 14.9318Q91.4659 15.6591 89.9773 15.6591Q88.4886 15.6591 87.3296 14.9318Q86.1705 14.2045 85.5057 12.8636Q84.8409 11.5227 84.8409 9.68182Q84.8409 7.84091 85.5057 6.5Q86.1705 5.15909 87.3296 4.43182Q88.4886 3.70455 89.9773 3.70455Q91.4659 3.70455 92.625 4.43182Q93.7841 5.15909 94.4489 6.5Q95.1136 7.84091 95.1136 9.68182ZM93.75 9.68182Q93.75 8.17045 93.2472 7.13068Q92.7443 6.09091 91.8892 5.55682Q91.0341 5.02273 89.9773 5.02273Q88.9205 5.02273 88.0654 5.55682Q87.2102 6.09091 86.7074 7.13068Q86.2046 8.17045 86.2046 9.68182Q86.2046 11.1932 86.7074 12.233Q87.2102 13.2727 88.0654 13.8068Q88.9205 14.3409 89.9773 14.3409Q91.0341 14.3409 91.8892 13.8068Q92.7443 13.2727 93.2472 12.233Q93.75 11.1932 93.75 9.68182ZM99.0682 3.86364L98.9546 12.2273L97.6364 12.2273L97.5227 3.86364L99.0682 3.86364ZM98.2955 15.5909Q97.875 15.5909 97.5739 15.2898Q97.2727 14.9886 97.2727 14.5682Q97.2727 14.1477 97.5739 13.8466Q97.875 13.5455 98.2955 13.5455Q98.7159 13.5455 99.0171 13.8466Q99.3182 14.1477 99.3182 14.5682Q99.3182 14.9886 99.0171 15.2898Q98.7159 15.5909 98.2955 15.5909ZM106.909 15.5L105.432 15.5L109.705 3.86364L111.159 3.86364L115.432 15.5L113.955 15.5L112.784 12.2045L108.08 12.2045L106.909 15.5ZM108.523 10.9545L112.341 10.9545L110.477 5.70455L110.386 5.70455L108.523 10.9545ZM123.25 8.72727L122.045 9.06818Q121.869 8.61364 121.455 8.21591Q121.04 7.81818 120.159 7.81818Q119.358 7.81818 118.827 8.18466Q118.295 8.55114 118.295 9.11364Q118.295 9.61364 118.659 9.90341Q119.023 10.1932 119.795 10.3864L121.091 10.7045Q123.409 11.2727 123.409 13.0682Q123.409 13.8182 122.98 14.4091Q122.551 15 121.784 15.3409Q121.017 15.6818 120 15.6818Q118.665 15.6818 117.79 15.1023Q116.915 14.5227 116.682 13.4091L117.955 13.0909Q118.313 14.5 119.977 14.5Q120.915 14.5 121.469 14.0994Q122.023 13.6989 122.023 13.1364Q122.023 12.2102 120.727 11.9091L119.273 11.5682Q118.074 11.2841 117.514 10.6847Q116.955 10.0852 116.955 9.18182Q116.955 8.44318 117.372 7.875Q117.79 7.30682 118.514 6.98295Q119.239 6.65909 120.159 6.65909Q121.455 6.65909 122.196 7.22727Q122.938 7.79545 123.25 8.72727ZM137.068 6.77273L133.841 15.5L132.477 15.5L129.25 6.77273L130.705 6.77273L133.114 13.7273L133.205 13.7273L135.614 6.77273L137.068 6.77273ZM141.136 15.7045Q140.307 15.7045 139.631 15.3892Q138.955 15.0739 138.557 14.4744Q138.159 13.875 138.159 13.0227Q138.159 12.2727 138.455 11.804Q138.75 11.3352 139.244 11.0682Q139.739 10.8011 140.338 10.6676Q140.938 10.5341 141.545 10.4545Q142.341 10.3523 142.838 10.2983Q143.335 10.2443 143.565 10.1136Q143.795 9.98295 143.795 9.65909L143.795 9.61364Q143.795 8.77273 143.338 8.30682Q142.881 7.84091 141.955 7.84091Q140.994 7.84091 140.449 8.26136Q139.903 8.68182 139.682 9.15909L138.409 8.70455Q138.75 7.90909 139.321 7.46307Q139.892 7.01705 140.571 6.83807Q141.25 6.65909 141.909 6.65909Q142.33 6.65909 142.878 6.75852Q143.426 6.85795 143.94 7.16477Q144.455 7.47159 144.795 8.09091Q145.136 8.71023 145.136 9.75L145.136 15.5L143.795 15.5L143.795 14.3182L143.727 14.3182Q143.591 14.6023 143.273 14.9261Q142.955 15.25 142.426 15.4773Q141.898 15.7045 141.136 15.7045ZM141.341 14.5Q142.136 14.5 142.685 14.1875Q143.233 13.875 143.514 13.3807Q143.795 12.8864 143.795 12.3409L143.795 11.1136Q143.71 11.2159 143.423 11.2983Q143.136 11.3807 142.764 11.4403Q142.392 11.5 142.043 11.5426Q141.693 11.5852 141.477 11.6136Q140.955 11.6818 140.503 11.8324Q140.051 11.983 139.776 12.2813Q139.5 12.5795 139.5 13.0909Q139.5 13.7898 140.02 14.1449Q140.54 14.5 141.341 14.5ZM151.114 18.9545Q149.653 18.9545 148.804 18.4233Q147.955 17.892 147.545 17.2045L148.614 16.4545Q148.795 16.6932 149.074 17.0028Q149.352 17.3125 149.838 17.5426Q150.324 17.7727 151.114 17.7727Q152.17 17.7727 152.858 17.2614Q153.545 16.75 153.545 15.6591L153.545 13.8864L153.432 13.8864Q153.284 14.125 153.014 14.4744Q152.744 14.8239 152.241 15.0938Q151.739 15.3636 150.886 15.3636Q149.83 15.3636 148.991 14.8636Q148.153 14.3636 147.668 13.4091Q147.182 12.4545 147.182 11.0909Q147.182 9.75 147.653 8.75284Q148.125 7.75568 148.966 7.20739Q149.807 6.65909 150.909 6.65909Q151.761 6.65909 152.264 6.94034Q152.767 7.22159 153.037 7.5767Q153.307 7.93182 153.455 8.15909L153.591 8.15909L153.591 6.77273L154.886 6.77273L154.886 15.75Q154.886 16.875 154.378 17.5824Q153.869 18.2898 153.014 18.6222Q152.159 18.9545 151.114 18.9545ZM151.068 14.1591Q152.278 14.1591 152.923 13.3381Q153.568 12.517 153.568 11.0682Q153.568 9.65341 152.932 8.75852Q152.295 7.86364 151.068 7.86364Q150.216 7.86364 149.651 8.29545Q149.085 8.72727 148.804 9.45455Q148.523 10.1818 148.523 11.0682Q148.523 12.4318 149.165 13.2955Q149.807 14.1591 151.068 14.1591ZM159.909 15.7045Q159.08 15.7045 158.403 15.3892Q157.727 15.0739 157.33 14.4744Q156.932 13.875 156.932 13.0227Q156.932 12.2727 157.227 11.804Q157.523 11.3352 158.017 11.0682Q158.511 10.8011 159.111 10.6676Q159.71 10.5341 160.318 10.4545Q161.114 10.3523 161.611 10.2983Q162.108 10.2443 162.338 10.1136Q162.568 9.98295 162.568 9.65909L162.568 9.61364Q162.568 8.77273 162.111 8.30682Q161.653 7.84091 160.727 7.84091Q159.767 7.84091 159.222 8.26136Q158.676 8.68182 158.455 9.15909L157.182 8.70455Q157.523 7.90909 158.094 7.46307Q158.665 7.01705 159.344 6.83807Q160.023 6.65909 160.682 6.65909Q161.102 6.65909 161.651 6.75852Q162.199 6.85795 162.713 7.16477Q163.227 7.47159 163.568 8.09091Q163.909 8.71023 163.909 9.75L163.909 15.5L162.568 15.5L162.568 14.3182L162.5 14.3182Q162.364 14.6023 162.045 14.9261Q161.727 15.25 161.199 15.4773Q160.67 15.7045 159.909 15.7045ZM160.114 14.5Q160.909 14.5 161.457 14.1875Q162.006 13.875 162.287 13.3807Q162.568 12.8864 162.568 12.3409L162.568 11.1136Q162.483 11.2159 162.196 11.2983Q161.909 11.3807 161.537 11.4403Q161.165 11.5 160.815 11.5426Q160.466 11.5852 160.25 11.6136Q159.727 11.6818 159.276 11.8324Q158.824 11.983 158.548 12.2813Q158.273 12.5795 158.273 13.0909Q158.273 13.7898 158.793 14.1449Q159.313 14.5 160.114 14.5ZM172.545 8.72727L171.341 9.06818Q171.165 8.61364 170.75 8.21591Q170.335 7.81818 169.455 7.81818Q168.653 7.81818 168.122 8.18466Q167.591 8.55114 167.591 9.11364Q167.591 9.61364 167.955 9.90341Q168.318 10.1932 169.091 10.3864L170.386 10.7045Q172.705 11.2727 172.705 13.0682Q172.705 13.8182 172.276 14.4091Q171.847 15 171.08 15.3409Q170.313 15.6818 169.295 15.6818Q167.96 15.6818 167.085 15.1023Q166.21 14.5227 165.977 13.4091L167.25 13.0909Q167.608 14.5 169.273 14.5Q170.21 14.5 170.764 14.0994Q171.318 13.6989 171.318 13.1364Q171.318 12.2102 170.023 11.9091L168.568 11.5682Q167.369 11.2841 166.81 10.6847Q166.25 10.0852 166.25 9.18182Q166.25 8.44318 166.668 7.875Q167.085 7.30682 167.81 6.98295Q168.534 6.65909 169.455 6.65909Q170.75 6.65909 171.492 7.22727Q172.233 7.79545 172.545 8.72727ZM185.409 8.72727L184.205 9.06818Q184.028 8.61364 183.614 8.21591Q183.199 7.81818 182.318 7.81818Q181.517 7.81818 180.986 8.18466Q180.455 8.55114 180.455 9.11364Q180.455 9.61364 180.818 9.90341Q181.182 10.1932 181.955 10.3864L183.25 10.7045Q185.568 11.2727 185.568 13.0682Q185.568 13.8182 185.139 14.4091Q184.71 15 183.943 15.3409Q183.176 15.6818 182.159 15.6818Q180.824 15.6818 179.949 15.1023Q179.074 14.5227 178.841 13.4091L180.114 13.0909Q180.472 14.5 182.136 14.5Q183.074 14.5 183.628 14.0994Q184.182 13.6989 184.182 13.1364Q184.182 12.2102 182.886 11.9091L181.432 11.5682Q180.233 11.2841 179.673 10.6847Q179.114 10.0852 179.114 9.18182Q179.114 8.44318 179.531 7.875Q179.949 7.30682 180.673 6.98295Q181.398 6.65909 182.318 6.65909Q183.614 6.65909 184.355 7.22727Q185.097 7.79545 185.409 8.72727ZM190.159 15.7045Q189.33 15.7045 188.653 15.3892Q187.977 15.0739 187.58 14.4744Q187.182 13.875 187.182 13.0227Q187.182 12.2727 187.477 11.804Q187.773 11.3352 188.267 11.0682Q188.761 10.8011 189.361 10.6676Q189.96 10.5341 190.568 10.4545Q191.364 10.3523 191.861 10.2983Q192.358 10.2443 192.588 10.1136Q192.818 9.98295 192.818 9.65909L192.818 9.61364Q192.818 8.77273 192.361 8.30682Q191.903 7.84091 190.977 7.84091Q190.017 7.84091 189.472 8.26136Q188.926 8.68182 188.705 9.15909L187.432 8.70455Q187.773 7.90909 188.344 7.46307Q188.915 7.01705 189.594 6.83807Q190.273 6.65909 190.932 6.65909Q191.352 6.65909 191.901 6.75852Q192.449 6.85795 192.963 7.16477Q193.477 7.47159 193.818 8.09091Q194.159 8.71023 194.159 9.75L194.159 15.5L192.818 15.5L192.818 14.3182L192.75 14.3182Q192.614 14.6023 192.295 14.9261Q191.977 15.25 191.449 15.4773Q190.92 15.7045 190.159 15.7045ZM190.364 14.5Q191.159 14.5 191.707 14.1875Q192.256 13.875 192.537 13.3807Q192.818 12.8864 192.818 12.3409L192.818 11.1136Q192.733 11.2159 192.446 11.2983Q192.159 11.3807 191.787 11.4403Q191.415 11.5 191.065 11.5426Q190.716 11.5852 190.5 11.6136Q189.977 11.6818 189.526 11.8324Q189.074 11.983 188.798 12.2813Q188.523 12.5795 188.523 13.0909Q188.523 13.7898 189.043 14.1449Q189.563 14.5 190.364 14.5ZM189.273 5.72727L188.227 5.68182Q188.227 4.8125 188.724 4.25852Q189.222 3.70455 189.955 3.70455Q190.386 3.70455 190.696 3.88636Q191.006 4.06818 191.31 4.25Q191.614 4.43182 192.023 4.43182Q192.347 4.43182 192.571 4.17898Q192.795 3.92614 192.795 3.56818L193.818 3.65909Q193.818 4.54545 193.321 5.06818Q192.824 5.59091 192.091 5.59091Q191.699 5.59091 191.443 5.48011Q191.188 5.36932 190.989 5.22727Q190.79 5.08523 190.568 4.97443Q190.347 4.86364 190.023 4.86364Q189.699 4.86364 189.486 5.11648Q189.273 5.36932 189.273 5.72727ZM200.159 15.6818Q198.977 15.6818 198.088 15.1193Q197.199 14.5568 196.702 13.5455Q196.205 12.5341 196.205 11.1818Q196.205 9.81818 196.702 8.80114Q197.199 7.78409 198.088 7.22159Q198.977 6.65909 200.159 6.65909Q201.341 6.65909 202.23 7.22159Q203.119 7.78409 203.617 8.80114Q204.114 9.81818 204.114 11.1818Q204.114 12.5341 203.617 13.5455Q203.119 14.5568 202.23 15.1193Q201.341 15.6818 200.159 15.6818ZM200.159 14.4773Q201.057 14.4773 201.636 14.017Q202.216 13.5568 202.494 12.8068Q202.773 12.0568 202.773 11.1818Q202.773 10.3068 202.494 9.55114Q202.216 8.79546 201.636 8.32955Q201.057 7.86364 200.159 7.86364Q199.261 7.86364 198.682 8.32955Q198.102 8.79546 197.824 9.55114Q197.545 10.3068 197.545 11.1818Q197.545 12.0568 197.824 12.8068Q198.102 13.5568 198.682 14.017Q199.261 14.4773 200.159 14.4773ZM212 3.86364L212 15.5L210.659 15.5L210.659 3.86364L212 3.86364ZM214.455 15.5L214.455 6.77273L215.795 6.77273L215.795 15.5L214.455 15.5ZM215.136 5.31818Q214.744 5.31818 214.463 5.05114Q214.182 4.78409 214.182 4.40909Q214.182 4.03409 214.463 3.76705Q214.744 3.5 215.136 3.5Q215.528 3.5 215.81 3.76705Q216.091 4.03409 216.091 4.40909Q216.091 4.78409 215.81 5.05114Q215.528 5.31818 215.136 5.31818ZM218.25 15.5L218.25 6.77273L219.545 6.77273L219.545 8.13636L219.659 8.13636Q219.932 7.4375 220.54 7.0483Q221.148 6.65909 222 6.65909Q222.864 6.65909 223.44 7.0483Q224.017 7.4375 224.341 8.13636L224.432 8.13636Q224.767 7.46023 225.438 7.05966Q226.108 6.65909 227.045 6.65909Q228.216 6.65909 228.96 7.3892Q229.705 8.11932 229.705 9.65909L229.705 15.5L228.364 15.5L228.364 9.65909Q228.364 8.69318 227.835 8.27841Q227.307 7.86364 226.591 7.86364Q225.67 7.86364 225.165 8.41761Q224.659 8.97159 224.659 9.81818L224.659 15.5L223.295 15.5L223.295 9.52273Q223.295 8.77841 222.813 8.32102Q222.33 7.86364 221.568 7.86364Q221.045 7.86364 220.594 8.14205Q220.142 8.42046 219.867 8.91193Q219.591 9.40341 219.591 10.0455L219.591 15.5L218.25 15.5ZM232.159 15.5L232.159 6.77273L233.5 6.77273L233.5 15.5L232.159 15.5ZM232.841 5.31818Q232.449 5.31818 232.168 5.05114Q231.886 4.78409 231.886 4.40909Q231.886 4.03409 232.168 3.76705Q232.449 3.5 232.841 3.5Q233.233 3.5 233.514 3.76705Q233.795 4.03409 233.795 4.40909Q233.795 4.78409 233.514 5.05114Q233.233 5.31818 232.841 5.31818ZM239.75 6.77273L239.75 7.90909L237.886 7.90909L237.886 13Q237.886 13.5682 238.054 13.8494Q238.222 14.1307 238.486 14.2244Q238.75 14.3182 239.045 14.3182Q239.267 14.3182 239.409 14.2926Q239.551 14.267 239.636 14.25L239.909 15.4545Q239.773 15.5057 239.528 15.5597Q239.284 15.6136 238.909 15.6136Q238.341 15.6136 237.798 15.3693Q237.256 15.125 236.901 14.625Q236.545 14.125 236.545 13.3636L236.545 7.90909L235.227 7.90909L235.227 6.77273L236.545 6.77273L236.545 4.68182L237.886 4.68182L237.886 6.77273L239.75 6.77273ZM244.341 15.7045Q243.511 15.7045 242.835 15.3892Q242.159 15.0739 241.761 14.4744Q241.364 13.875 241.364 13.0227Q241.364 12.2727 241.659 11.804Q241.955 11.3352 242.449 11.0682Q242.943 10.8011 243.543 10.6676Q244.142 10.5341 244.75 10.4545Q245.545 10.3523 246.043 10.2983Q246.54 10.2443 246.77 10.1136Q247 9.98295 247 9.65909L247 9.61364Q247 8.77273 246.543 8.30682Q246.085 7.84091 245.159 7.84091Q244.199 7.84091 243.653 8.26136Q243.108 8.68182 242.886 9.15909L241.614 8.70455Q241.955 7.90909 242.526 7.46307Q243.097 7.01705 243.776 6.83807Q244.455 6.65909 245.114 6.65909Q245.534 6.65909 246.082 6.75852Q246.631 6.85795 247.145 7.16477Q247.659 7.47159 248 8.09091Q248.341 8.71023 248.341 9.75L248.341 15.5L247 15.5L247 14.3182L246.932 14.3182Q246.795 14.6023 246.477 14.9261Q246.159 15.25 245.631 15.4773Q245.102 15.7045 244.341 15.7045ZM244.545 14.5Q245.341 14.5 245.889 14.1875Q246.438 13.875 246.719 13.3807Q247 12.8864 247 12.3409L247 11.1136Q246.915 11.2159 246.628 11.2983Q246.341 11.3807 245.969 11.4403Q245.597 11.5 245.247 11.5426Q244.898 11.5852 244.682 11.6136Q244.159 11.6818 243.707 11.8324Q243.256 11.983 242.98 12.2813Q242.705 12.5795 242.705 13.0909Q242.705 13.7898 243.224 14.1449Q243.744 14.5 244.545 14.5ZM254.091 15.6818Q253 15.6818 252.165 15.1278Q251.33 14.5739 250.858 13.5597Q250.386 12.5455 250.386 11.1591Q250.386 9.78409 250.858 8.77273Q251.33 7.76136 252.17 7.21023Q253.011 6.65909 254.114 6.65909Q254.966 6.65909 255.463 6.94034Q255.96 7.22159 256.224 7.5767Q256.489 7.93182 256.636 8.15909L256.75 8.15909L256.75 3.86364L258.091 3.86364L258.091 15.5L256.795 15.5L256.795 14.1591L256.636 14.1591Q256.489 14.3977 256.216 14.7585Q255.943 15.1193 255.438 15.4006Q254.932 15.6818 254.091 15.6818ZM254.273 14.4773Q255.483 14.4773 256.128 13.5483Q256.773 12.6193 256.773 11.1364Q256.773 9.67045 256.136 8.76705Q255.5 7.86364 254.273 7.86364Q253.42 7.86364 252.855 8.2983Q252.29 8.73295 252.009 9.47443Q251.727 10.2159 251.727 11.1364Q251.727 12.0682 252.014 12.8267Q252.301 13.5852 252.867 14.0313Q253.432 14.4773 254.273 14.4773ZM263.295 15.7045Q262.466 15.7045 261.79 15.3892Q261.114 15.0739 260.716 14.4744Q260.318 13.875 260.318 13.0227Q260.318 12.2727 260.614 11.804Q260.909 11.3352 261.403 11.0682Q261.898 10.8011 262.497 10.6676Q263.097 10.5341 263.705 10.4545Q264.5 10.3523 264.997 10.2983Q265.494 10.2443 265.724 10.1136Q265.955 9.98295 265.955 9.65909L265.955 9.61364Q265.955 8.77273 265.497 8.30682Q265.04 7.84091 264.114 7.84091Q263.153 7.84091 262.608 8.26136Q262.063 8.68182 261.841 9.15909L260.568 8.70455Q260.909 7.90909 261.48 7.46307Q262.051 7.01705 262.73 6.83807Q263.409 6.65909 264.068 6.65909Q264.489 6.65909 265.037 6.75852Q265.585 6.85795 266.099 7.16477Q266.614 7.47159 266.955 8.09091Q267.295 8.71023 267.295 9.75L267.295 15.5L265.955 15.5L265.955 14.3182L265.886 14.3182Q265.75 14.6023 265.432 14.9261Q265.114 15.25 264.585 15.4773Q264.057 15.7045 263.295 15.7045ZM263.5 14.5Q264.295 14.5 264.844 14.1875Q265.392 13.875 265.673 13.3807Q265.955 12.8864 265.955 12.3409L265.955 11.1136Q265.869 11.2159 265.582 11.2983Q265.295 11.3807 264.923 11.4403Q264.551 11.5 264.202 11.5426Q263.852 11.5852 263.636 11.6136Q263.114 11.6818 262.662 11.8324Q262.21 11.983 261.935 12.2813Q261.659 12.5795 261.659 13.0909Q261.659 13.7898 262.179 14.1449Q262.699 14.5 263.5 14.5ZM275.932 8.72727L274.727 9.06818Q274.551 8.61364 274.136 8.21591Q273.722 7.81818 272.841 7.81818Q272.04 7.81818 271.509 8.18466Q270.977 8.55114 270.977 9.11364Q270.977 9.61364 271.341 9.90341Q271.705 10.1932 272.477 10.3864L273.773 10.7045Q276.091 11.2727 276.091 13.0682Q276.091 13.8182 275.662 14.4091Q275.233 15 274.466 15.3409Q273.699 15.6818 272.682 15.6818Q271.347 15.6818 270.472 15.1023Q269.597 14.5227 269.364 13.4091L270.636 13.0909Q270.994 14.5 272.659 14.5Q273.597 14.5 274.151 14.0994Q274.705 13.6989 274.705 13.1364Q274.705 12.2102 273.409 11.9091L271.955 11.5682Q270.756 11.2841 270.196 10.6847Q269.636 10.0852 269.636 9.18182Q269.636 8.44318 270.054 7.875Q270.472 7.30682 271.196 6.98295Q271.921 6.65909 272.841 6.65909Q274.136 6.65909 274.878 7.22727Q275.619 7.79545 275.932 8.72727ZM286.273 15.6818Q285.011 15.6818 284.099 15.1222Q283.188 14.5625 282.696 13.554Q282.205 12.5455 282.205 11.2045Q282.205 9.86364 282.696 8.83807Q283.188 7.8125 284.071 7.2358Q284.955 6.65909 286.136 6.65909Q286.818 6.65909 287.483 6.88636Q288.148 7.11364 288.693 7.62216Q289.239 8.13068 289.563 8.96591Q289.886 9.80114 289.886 11.0227L289.886 11.5909L283.551 11.5909Q283.597 12.9886 284.344 13.733Q285.091 14.4773 286.273 14.4773Q287.063 14.4773 287.631 14.1364Q288.199 13.7955 288.455 13.1136L289.75 13.4773Q289.443 14.4659 288.523 15.0739Q287.602 15.6818 286.273 15.6818ZM283.551 10.4318L288.523 10.4318Q288.523 9.32386 287.875 8.59375Q287.227 7.86364 286.136 7.86364Q285.369 7.86364 284.807 8.22159Q284.244 8.57955 283.921 9.16761Q283.597 9.75568 283.551 10.4318ZM300.091 15.6818Q298.83 15.6818 297.918 15.1222Q297.006 14.5625 296.514 13.554Q296.023 12.5455 296.023 11.2045Q296.023 9.86364 296.514 8.83807Q297.006 7.8125 297.889 7.2358Q298.773 6.65909 299.955 6.65909Q300.636 6.65909 301.301 6.88636Q301.966 7.11364 302.511 7.62216Q303.057 8.13068 303.381 8.96591Q303.705 9.80114 303.705 11.0227L303.705 11.5909L297.369 11.5909Q297.415 12.9886 298.162 13.733Q298.909 14.4773 300.091 14.4773Q300.881 14.4773 301.449 14.1364Q302.017 13.7955 302.273 13.1136L303.568 13.4773Q303.261 14.4659 302.341 15.0739Q301.421 15.6818 300.091 15.6818ZM297.369 10.4318L302.341 10.4318Q302.341 9.32386 301.693 8.59375Q301.046 7.86364 299.955 7.86364Q299.188 7.86364 298.625 8.22159Q298.063 8.57955 297.739 9.16761Q297.415 9.75568 297.369 10.4318ZM311.932 8.72727L310.727 9.06818Q310.551 8.61364 310.136 8.21591Q309.722 7.81818 308.841 7.81818Q308.04 7.81818 307.509 8.18466Q306.977 8.55114 306.977 9.11364Q306.977 9.61364 307.341 9.90341Q307.705 10.1932 308.477 10.3864L309.773 10.7045Q312.091 11.2727 312.091 13.0682Q312.091 13.8182 311.662 14.4091Q311.233 15 310.466 15.3409Q309.699 15.6818 308.682 15.6818Q307.347 15.6818 306.472 15.1023Q305.597 14.5227 305.364 13.4091L306.636 13.0909Q306.994 14.5 308.659 14.5Q309.597 14.5 310.151 14.0994Q310.705 13.6989 310.705 13.1364Q310.705 12.2102 309.409 11.9091L307.955 11.5682Q306.756 11.2841 306.196 10.6847Q305.636 10.0852 305.636 9.18182Q305.636 8.44318 306.054 7.875Q306.472 7.30682 307.196 6.98295Q307.921 6.65909 308.841 6.65909Q310.136 6.65909 310.878 7.22727Q311.619 7.79545 311.932 8.72727ZM320.296 8.72727L319.091 9.06818Q318.915 8.61364 318.5 8.21591Q318.085 7.81818 317.205 7.81818Q316.403 7.81818 315.872 8.18466Q315.341 8.55114 315.341 9.11364Q315.341 9.61364 315.705 9.90341Q316.068 10.1932 316.841 10.3864L318.136 10.7045Q320.455 11.2727 320.455 13.0682Q320.455 13.8182 320.026 14.4091Q319.597 15 318.83 15.3409Q318.063 15.6818 317.046 15.6818Q315.71 15.6818 314.835 15.1023Q313.96 14.5227 313.727 13.4091L315 13.0909Q315.358 14.5 317.023 14.5Q317.96 14.5 318.514 14.0994Q319.068 13.6989 319.068 13.1364Q319.068 12.2102 317.773 11.9091L316.318 11.5682Q315.119 11.2841 314.56 10.6847Q314 10.0852 314 9.18182Q314 8.44318 314.418 7.875Q314.835 7.30682 315.56 6.98295Q316.284 6.65909 317.205 6.65909Q318.5 6.65909 319.242 7.22727Q319.983 7.79545 320.296 8.72727ZM325.046 15.7045Q324.216 15.7045 323.54 15.3892Q322.864 15.0739 322.466 14.4744Q322.068 13.875 322.068 13.0227Q322.068 12.2727 322.364 11.804Q322.659 11.3352 323.153 11.0682Q323.648 10.8011 324.247 10.6676Q324.847 10.5341 325.455 10.4545Q326.25 10.3523 326.747 10.2983Q327.244 10.2443 327.474 10.1136Q327.705 9.98295 327.705 9.65909L327.705 9.61364Q327.705 8.77273 327.247 8.30682Q326.79 7.84091 325.864 7.84091Q324.903 7.84091 324.358 8.26136Q323.813 8.68182 323.591 9.15909L322.318 8.70455Q322.659 7.90909 323.23 7.46307Q323.801 7.01705 324.48 6.83807Q325.159 6.65909 325.818 6.65909Q326.239 6.65909 326.787 6.75852Q327.335 6.85795 327.849 7.16477Q328.364 7.47159 328.705 8.09091Q329.046 8.71023 329.046 9.75L329.046 15.5L327.705 15.5L327.705 14.3182L327.636 14.3182Q327.5 14.6023 327.182 14.9261Q326.864 15.25 326.335 15.4773Q325.807 15.7045 325.046 15.7045ZM325.25 14.5Q326.046 14.5 326.594 14.1875Q327.142 13.875 327.423 13.3807Q327.705 12.8864 327.705 12.3409L327.705 11.1136Q327.619 11.2159 327.332 11.2983Q327.046 11.3807 326.673 11.4403Q326.301 11.5 325.952 11.5426Q325.602 11.5852 325.386 11.6136Q324.864 11.6818 324.412 11.8324Q323.96 11.983 323.685 12.2813Q323.409 12.5795 323.409 13.0909Q323.409 13.7898 323.929 14.1449Q324.449 14.5 325.25 14.5ZM339.546 15.6818Q338.318 15.6818 337.432 15.1023Q336.546 14.5227 336.068 13.5057Q335.591 12.4886 335.591 11.1818Q335.591 9.85227 336.082 8.83239Q336.574 7.8125 337.457 7.2358Q338.341 6.65909 339.523 6.65909Q340.443 6.65909 341.182 7Q341.921 7.34091 342.392 7.95455Q342.864 8.56818 342.977 9.38636L341.636 9.38636Q341.483 8.78977 340.957 8.3267Q340.432 7.86364 339.546 7.86364Q338.369 7.86364 337.651 8.75852Q336.932 9.65341 336.932 11.1364Q336.932 12.6534 337.642 13.5653Q338.352 14.4773 339.546 14.4773Q340.33 14.4773 340.889 14.0739Q341.449 13.6705 341.636 12.9545L342.977 12.9545Q342.864 13.7273 342.418 14.3438Q341.972 14.9602 341.242 15.321Q340.511 15.6818 339.546 15.6818ZM348.477 15.6818Q347.296 15.6818 346.406 15.1193Q345.517 14.5568 345.02 13.5455Q344.523 12.5341 344.523 11.1818Q344.523 9.81818 345.02 8.80114Q345.517 7.78409 346.406 7.22159Q347.296 6.65909 348.477 6.65909Q349.659 6.65909 350.548 7.22159Q351.438 7.78409 351.935 8.80114Q352.432 9.81818 352.432 11.1818Q352.432 12.5341 351.935 13.5455Q351.438 14.5568 350.548 15.1193Q349.659 15.6818 348.477 15.6818ZM348.477 14.4773Q349.375 14.4773 349.955 14.017Q350.534 13.5568 350.813 12.8068Q351.091 12.0568 351.091 11.1818Q351.091 10.3068 350.813 9.55114Q350.534 8.79546 349.955 8.32955Q349.375 7.86364 348.477 7.86364Q347.58 7.86364 347 8.32955Q346.421 8.79546 346.142 9.55114Q345.864 10.3068 345.864 11.1818Q345.864 12.0568 346.142 12.8068Q346.421 13.5568 347 14.017Q347.58 14.4773 348.477 14.4773ZM355.818 10.25L355.818 15.5L354.477 15.5L354.477 6.77273L355.773 6.77273L355.773 8.13636L355.886 8.13636Q356.193 7.47159 356.818 7.06534Q357.443 6.65909 358.432 6.65909Q359.756 6.65909 360.571 7.47159Q361.386 8.28409 361.386 9.95455L361.386 15.5L360.046 15.5L360.046 10.0455Q360.046 9.01705 359.511 8.44034Q358.977 7.86364 358.046 7.86364Q357.085 7.86364 356.452 8.4858Q355.818 9.10795 355.818 10.25ZM367.136 15.6818Q366.046 15.6818 365.21 15.1278Q364.375 14.5739 363.903 13.5597Q363.432 12.5455 363.432 11.1591Q363.432 9.78409 363.903 8.77273Q364.375 7.76136 365.216 7.21023Q366.057 6.65909 367.159 6.65909Q368.011 6.65909 368.509 6.94034Q369.006 7.22159 369.27 7.5767Q369.534 7.93182 369.682 8.15909L369.796 8.15909L369.796 3.86364L371.136 3.86364L371.136 15.5L369.841 15.5L369.841 14.1591L369.682 14.1591Q369.534 14.3977 369.261 14.7585Q368.989 15.1193 368.483 15.4006Q367.977 15.6818 367.136 15.6818ZM367.318 14.4773Q368.528 14.4773 369.173 13.5483Q369.818 12.6193 369.818 11.1364Q369.818 9.67045 369.182 8.76705Q368.546 7.86364 367.318 7.86364Q366.466 7.86364 365.901 8.2983Q365.335 8.73295 365.054 9.47443Q364.773 10.2159 364.773 11.1364Q364.773 12.0682 365.06 12.8267Q365.347 13.5852 365.912 14.0313Q366.477 14.4773 367.318 14.4773ZM373.773 15.5L373.773 6.77273L375.114 6.77273L375.114 15.5L373.773 15.5ZM374.455 5.31818Q374.063 5.31818 373.781 5.05114Q373.5 4.78409 373.5 4.40909Q373.5 4.03409 373.781 3.76705Q374.063 3.5 374.455 3.5Q374.847 3.5 375.128 3.76705Q375.409 4.03409 375.409 4.40909Q375.409 4.78409 375.128 5.05114Q374.847 5.31818 374.455 5.31818ZM381.114 15.6818Q379.886 15.6818 379 15.1023Q378.114 14.5227 377.636 13.5057Q377.159 12.4886 377.159 11.1818Q377.159 9.85227 377.651 8.83239Q378.142 7.8125 379.026 7.2358Q379.909 6.65909 381.091 6.65909Q382.011 6.65909 382.75 7Q383.489 7.34091 383.96 7.95455Q384.432 8.56818 384.546 9.38636L383.205 9.38636Q383.051 8.78977 382.526 8.3267Q382 7.86364 381.114 7.86364Q379.938 7.86364 379.219 8.75852Q378.5 9.65341 378.5 11.1364Q378.5 12.6534 379.21 13.5653Q379.921 14.4773 381.114 14.4773Q381.898 14.4773 382.457 14.0739Q383.017 13.6705 383.205 12.9545L384.546 12.9545Q384.432 13.7273 383.986 14.3438Q383.54 14.9602 382.81 15.321Q382.08 15.6818 381.114 15.6818ZM380.477 15.4545L381.591 15.4545L381.5 15.9091Q381.943 15.9773 382.313 16.2813Q382.682 16.5852 382.682 17.25Q382.682 17.983 382.077 18.446Q381.472 18.9091 380.296 18.9091L380.25 18.0227Q380.778 18.0227 381.128 17.8551Q381.477 17.6875 381.477 17.2955Q381.477 16.9034 381.188 16.7614Q380.898 16.6193 380.25 16.5682L380.477 15.4545ZM389.068 15.7045Q388.239 15.7045 387.563 15.3892Q386.886 15.0739 386.489 14.4744Q386.091 13.875 386.091 13.0227Q386.091 12.2727 386.386 11.804Q386.682 11.3352 387.176 11.0682Q387.671 10.8011 388.27 10.6676Q388.869 10.5341 389.477 10.4545Q390.273 10.3523 390.77 10.2983Q391.267 10.2443 391.497 10.1136Q391.727 9.98295 391.727 9.65909L391.727 9.61364Q391.727 8.77273 391.27 8.30682Q390.813 7.84091 389.886 7.84091Q388.926 7.84091 388.381 8.26136Q387.835 8.68182 387.614 9.15909L386.341 8.70455Q386.682 7.90909 387.253 7.46307Q387.824 7.01705 388.503 6.83807Q389.182 6.65909 389.841 6.65909Q390.261 6.65909 390.81 6.75852Q391.358 6.85795 391.872 7.16477Q392.386 7.47159 392.727 8.09091Q393.068 8.71023 393.068 9.75L393.068 15.5L391.727 15.5L391.727 14.3182L391.659 14.3182Q391.523 14.6023 391.205 14.9261Q390.886 15.25 390.358 15.4773Q389.83 15.7045 389.068 15.7045ZM389.273 14.5Q390.068 14.5 390.617 14.1875Q391.165 13.875 391.446 13.3807Q391.727 12.8864 391.727 12.3409L391.727 11.1136Q391.642 11.2159 391.355 11.2983Q391.068 11.3807 390.696 11.4403Q390.324 11.5 389.974 11.5426Q389.625 11.5852 389.409 11.6136Q388.886 11.6818 388.435 11.8324Q387.983 11.983 387.707 12.2813Q387.432 12.5795 387.432 13.0909Q387.432 13.7898 387.952 14.1449Q388.472 14.5 389.273 14.5ZM388.182 5.72727L387.136 5.68182Q387.136 4.8125 387.634 4.25852Q388.131 3.70455 388.864 3.70455Q389.296 3.70455 389.605 3.88636Q389.915 4.06818 390.219 4.25Q390.523 4.43182 390.932 4.43182Q391.256 4.43182 391.48 4.17898Q391.705 3.92614 391.705 3.56818L392.727 3.65909Q392.727 4.54545 392.23 5.06818Q391.733 5.59091 391 5.59091Q390.608 5.59091 390.352 5.48011Q390.097 5.36932 389.898 5.22727Q389.699 5.08523 389.477 4.97443Q389.256 4.86364 388.932 4.86364Q388.608 4.86364 388.395 5.11648Q388.182 5.36932 388.182 5.72727ZM399.068 15.6818Q397.886 15.6818 396.997 15.1193Q396.108 14.5568 395.611 13.5455Q395.114 12.5341 395.114 11.1818Q395.114 9.81818 395.611 8.80114Q396.108 7.78409 396.997 7.22159Q397.886 6.65909 399.068 6.65909Q400.25 6.65909 401.139 7.22159Q402.028 7.78409 402.526 8.80114Q403.023 9.81818 403.023 11.1818Q403.023 12.5341 402.526 13.5455Q402.028 14.5568 401.139 15.1193Q400.25 15.6818 399.068 15.6818ZM399.068 14.4773Q399.966 14.4773 400.546 14.017Q401.125 13.5568 401.403 12.8068Q401.682 12.0568 401.682 11.1818Q401.682 10.3068 401.403 9.55114Q401.125 8.79546 400.546 8.32955Q399.966 7.86364 399.068 7.86364Q398.171 7.86364 397.591 8.32955Q397.011 8.79546 396.733 9.55114Q396.455 10.3068 396.455 11.1818Q396.455 12.0568 396.733 12.8068Q397.011 13.5568 397.591 14.017Q398.171 14.4773 399.068 14.4773ZM413.227 15.6818Q411.966 15.6818 411.054 15.1222Q410.142 14.5625 409.651 13.554Q409.159 12.5455 409.159 11.2045Q409.159 9.86364 409.651 8.83807Q410.142 7.8125 411.026 7.2358Q411.909 6.65909 413.091 6.65909Q413.773 6.65909 414.438 6.88636Q415.102 7.11364 415.648 7.62216Q416.193 8.13068 416.517 8.96591Q416.841 9.80114 416.841 11.0227L416.841 11.5909L410.506 11.5909Q410.551 12.9886 411.298 13.733Q412.046 14.4773 413.227 14.4773Q414.017 14.4773 414.585 14.1364Q415.153 13.7955 415.409 13.1136L416.705 13.4773Q416.398 14.4659 415.477 15.0739Q414.557 15.6818 413.227 15.6818ZM410.506 10.4318L415.477 10.4318Q415.477 9.32386 414.83 8.59375Q414.182 7.86364 413.091 7.86364Q412.324 7.86364 411.761 8.22159Q411.199 8.57955 410.875 9.16761Q410.551 9.75568 410.506 10.4318ZM425.068 8.72727L423.864 9.06818Q423.688 8.61364 423.273 8.21591Q422.858 7.81818 421.977 7.81818Q421.176 7.81818 420.645 8.18466Q420.114 8.55114 420.114 9.11364Q420.114 9.61364 420.477 9.90341Q420.841 10.1932 421.614 10.3864L422.909 10.7045Q425.227 11.2727 425.227 13.0682Q425.227 13.8182 424.798 14.4091Q424.369 15 423.602 15.3409Q422.835 15.6818 421.818 15.6818Q420.483 15.6818 419.608 15.1023Q418.733 14.5227 418.5 13.4091L419.773 13.0909Q420.131 14.5 421.796 14.5Q422.733 14.5 423.287 14.0994Q423.841 13.6989 423.841 13.1364Q423.841 12.2102 422.546 11.9091L421.091 11.5682Q419.892 11.2841 419.332 10.6847Q418.773 10.0852 418.773 9.18182Q418.773 8.44318 419.19 7.875Q419.608 7.30682 420.332 6.98295Q421.057 6.65909 421.977 6.65909Q423.273 6.65909 424.014 7.22727Q424.756 7.79545 425.068 8.72727ZM427.25 18.7727L427.25 6.77273L428.546 6.77273L428.546 8.15909L428.705 8.15909Q428.852 7.93182 429.117 7.5767Q429.381 7.22159 429.878 6.94034Q430.375 6.65909 431.227 6.65909Q432.33 6.65909 433.171 7.21023Q434.011 7.76136 434.483 8.77273Q434.955 9.78409 434.955 11.1591Q434.955 12.5455 434.483 13.5597Q434.011 14.5739 433.176 15.1278Q432.341 15.6818 431.25 15.6818Q430.409 15.6818 429.903 15.4006Q429.398 15.1193 429.125 14.7585Q428.852 14.3977 428.705 14.1591L428.591 14.1591L428.591 18.7727L427.25 18.7727ZM428.568 11.1364Q428.568 12.6193 429.213 13.5483Q429.858 14.4773 431.068 14.4773Q431.909 14.4773 432.474 14.0313Q433.04 13.5852 433.327 12.8267Q433.614 12.0682 433.614 11.1364Q433.614 10.2159 433.332 9.47443Q433.051 8.73295 432.486 8.2983Q431.921 7.86364 431.068 7.86364Q429.841 7.86364 429.205 8.76705Q428.568 9.67045 428.568 11.1364ZM440.659 15.6818Q439.398 15.6818 438.486 15.1222Q437.574 14.5625 437.082 13.554Q436.591 12.5455 436.591 11.2045Q436.591 9.86364 437.082 8.83807Q437.574 7.8125 438.457 7.2358Q439.341 6.65909 440.523 6.65909Q441.205 6.65909 441.869 6.88636Q442.534 7.11364 443.08 7.62216Q443.625 8.13068 443.949 8.96591Q444.273 9.80114 444.273 11.0227L444.273 11.5909L437.938 11.5909Q437.983 12.9886 438.73 13.733Q439.477 14.4773 440.659 14.4773Q441.449 14.4773 442.017 14.1364Q442.585 13.7955 442.841 13.1136L444.136 13.4773Q443.83 14.4659 442.909 15.0739Q441.989 15.6818 440.659 15.6818ZM437.938 10.4318L442.909 10.4318Q442.909 9.32386 442.261 8.59375Q441.614 7.86364 440.523 7.86364Q439.756 7.86364 439.193 8.22159Q438.631 8.57955 438.307 9.16761Q437.983 9.75568 437.938 10.4318ZM449.864 15.6818Q448.636 15.6818 447.75 15.1023Q446.864 14.5227 446.386 13.5057Q445.909 12.4886 445.909 11.1818Q445.909 9.85227 446.401 8.83239Q446.892 7.8125 447.776 7.2358Q448.659 6.65909 449.841 6.65909Q450.761 6.65909 451.5 7Q452.239 7.34091 452.71 7.95455Q453.182 8.56818 453.296 9.38636L451.955 9.38636Q451.801 8.78977 451.276 8.3267Q450.75 7.86364 449.864 7.86364Q448.688 7.86364 447.969 8.75852Q447.25 9.65341 447.25 11.1364Q447.25 12.6534 447.96 13.5653Q448.671 14.4773 449.864 14.4773Q450.648 14.4773 451.207 14.0739Q451.767 13.6705 451.955 12.9545L453.296 12.9545Q453.182 13.7273 452.736 14.3438Q452.29 14.9602 451.56 15.321Q450.83 15.6818 449.864 15.6818ZM455.25 15.5L455.25 6.77273L456.591 6.77273L456.591 15.5L455.25 15.5ZM455.932 5.31818Q455.54 5.31818 455.259 5.05114Q454.977 4.78409 454.977 4.40909Q454.977 4.03409 455.259 3.76705Q455.54 3.5 455.932 3.5Q456.324 3.5 456.605 3.76705Q456.886 4.03409 456.886 4.40909Q456.886 4.78409 456.605 5.05114Q456.324 5.31818 455.932 5.31818ZM461.614 15.7045Q460.784 15.7045 460.108 15.3892Q459.432 15.0739 459.034 14.4744Q458.636 13.875 458.636 13.0227Q458.636 12.2727 458.932 11.804Q459.227 11.3352 459.722 11.0682Q460.216 10.8011 460.815 10.6676Q461.415 10.5341 462.023 10.4545Q462.818 10.3523 463.315 10.2983Q463.813 10.2443 464.043 10.1136Q464.273 9.98295 464.273 9.65909L464.273 9.61364Q464.273 8.77273 463.815 8.30682Q463.358 7.84091 462.432 7.84091Q461.472 7.84091 460.926 8.26136Q460.381 8.68182 460.159 9.15909L458.886 8.70455Q459.227 7.90909 459.798 7.46307Q460.369 7.01705 461.048 6.83807Q461.727 6.65909 462.386 6.65909Q462.807 6.65909 463.355 6.75852Q463.903 6.85795 464.418 7.16477Q464.932 7.47159 465.273 8.09091Q465.614 8.71023 465.614 9.75L465.614 15.5L464.273 15.5L464.273 14.3182L464.205 14.3182Q464.068 14.6023 463.75 14.9261Q463.432 15.25 462.903 15.4773Q462.375 15.7045 461.614 15.7045ZM461.818 14.5Q462.614 14.5 463.162 14.1875Q463.71 13.875 463.992 13.3807Q464.273 12.8864 464.273 12.3409L464.273 11.1136Q464.188 11.2159 463.901 11.2983Q463.614 11.3807 463.242 11.4403Q462.869 11.5 462.52 11.5426Q462.171 11.5852 461.955 11.6136Q461.432 11.6818 460.98 11.8324Q460.528 11.983 460.253 12.2813Q459.977 12.5795 459.977 13.0909Q459.977 13.7898 460.497 14.1449Q461.017 14.5 461.818 14.5ZM469.409 3.86364L469.409 15.5L468.068 15.5L468.068 3.86364L469.409 3.86364ZM480.023 15.6818Q478.761 15.6818 477.849 15.1222Q476.938 14.5625 476.446 13.554Q475.955 12.5455 475.955 11.2045Q475.955 9.86364 476.446 8.83807Q476.938 7.8125 477.821 7.2358Q478.705 6.65909 479.886 6.65909Q480.568 6.65909 481.233 6.88636Q481.898 7.11364 482.443 7.62216Q482.989 8.13068 483.313 8.96591Q483.636 9.80114 483.636 11.0227L483.636 11.5909L477.301 11.5909Q477.347 12.9886 478.094 13.733Q478.841 14.4773 480.023 14.4773Q480.813 14.4773 481.381 14.1364Q481.949 13.7955 482.205 13.1136L483.5 13.4773Q483.193 14.4659 482.273 15.0739Q481.352 15.6818 480.023 15.6818ZM477.301 10.4318L482.273 10.4318Q482.273 9.32386 481.625 8.59375Q480.977 7.86364 479.886 7.86364Q479.119 7.86364 478.557 8.22159Q477.994 8.57955 477.671 9.16761Q477.347 9.75568 477.301 10.4318ZM491.864 8.72727L490.659 9.06818Q490.483 8.61364 490.068 8.21591Q489.653 7.81818 488.773 7.81818Q487.972 7.81818 487.44 8.18466Q486.909 8.55114 486.909 9.11364Q486.909 9.61364 487.273 9.90341Q487.636 10.1932 488.409 10.3864L489.705 10.7045Q492.023 11.2727 492.023 13.0682Q492.023 13.8182 491.594 14.4091Q491.165 15 490.398 15.3409Q489.631 15.6818 488.614 15.6818Q487.278 15.6818 486.403 15.1023Q485.528 14.5227 485.296 13.4091L486.568 13.0909Q486.926 14.5 488.591 14.5Q489.528 14.5 490.082 14.0994Q490.636 13.6989 490.636 13.1364Q490.636 12.2102 489.341 11.9091L487.886 11.5682Q486.688 11.2841 486.128 10.6847Q485.568 10.0852 485.568 9.18182Q485.568 8.44318 485.986 7.875Q486.403 7.30682 487.128 6.98295Q487.852 6.65909 488.773 6.65909Q490.068 6.65909 490.81 7.22727Q491.551 7.79545 491.864 8.72727ZM497.841 6.77273L497.841 7.90909L495.977 7.90909L495.977 13Q495.977 13.5682 496.145 13.8494Q496.313 14.1307 496.577 14.2244Q496.841 14.3182 497.136 14.3182Q497.358 14.3182 497.5 14.2926Q497.642 14.267 497.727 14.25L498 15.4545Q497.864 15.5057 497.619 15.5597Q497.375 15.6136 497 15.6136Q496.432 15.6136 495.889 15.3693Q495.347 15.125 494.992 14.625Q494.636 14.125 494.636 13.3636L494.636 7.90909L493.318 7.90909L493.318 6.77273L494.636 6.77273L494.636 4.68182L495.977 4.68182L495.977 6.77273L497.841 6.77273ZM502.432 15.7045Q501.602 15.7045 500.926 15.3892Q500.25 15.0739 499.852 14.4744Q499.455 13.875 499.455 13.0227Q499.455 12.2727 499.75 11.804Q500.046 11.3352 500.54 11.0682Q501.034 10.8011 501.634 10.6676Q502.233 10.5341 502.841 10.4545Q503.636 10.3523 504.134 10.2983Q504.631 10.2443 504.861 10.1136Q505.091 9.98295 505.091 9.65909L505.091 9.61364Q505.091 8.77273 504.634 8.30682Q504.176 7.84091 503.25 7.84091Q502.29 7.84091 501.744 8.26136Q501.199 8.68182 500.977 9.15909L499.705 8.70455Q500.046 7.90909 500.617 7.46307Q501.188 7.01705 501.867 6.83807Q502.546 6.65909 503.205 6.65909Q503.625 6.65909 504.173 6.75852Q504.722 6.85795 505.236 7.16477Q505.75 7.47159 506.091 8.09091Q506.432 8.71023 506.432 9.75L506.432 15.5L505.091 15.5L505.091 14.3182L505.023 14.3182Q504.886 14.6023 504.568 14.9261Q504.25 15.25 503.722 15.4773Q503.193 15.7045 502.432 15.7045ZM502.636 14.5Q503.432 14.5 503.98 14.1875Q504.528 13.875 504.81 13.3807Q505.091 12.8864 505.091 12.3409L505.091 11.1136Q505.006 11.2159 504.719 11.2983Q504.432 11.3807 504.06 11.4403Q503.688 11.5 503.338 11.5426Q502.989 11.5852 502.773 11.6136Q502.25 11.6818 501.798 11.8324Q501.347 11.983 501.071 12.2813Q500.796 12.5795 500.796 13.0909Q500.796 13.7898 501.315 14.1449Q501.835 14.5 502.636 14.5ZM502.682 5.59091L504.068 2.95455L505.636 2.95455L503.864 5.59091L502.682 5.59091Z" transform="translate(0 3.318)" style="fill:#E6E6E6;" />
      <path d="M7.18182 18.7727L7.18182 14.1591L7.06818 14.1591Q6.92045 14.3977 6.64773 14.7585Q6.375 15.1193 5.86932 15.4006Q5.36364 15.6818 4.52273 15.6818Q3.43182 15.6818 2.59659 15.1278Q1.76136 14.5739 1.28977 13.5597Q0.818182 12.5455 0.818182 11.1591Q0.818182 9.78409 1.28977 8.77273Q1.76136 7.76136 2.60227 7.21023Q3.44318 6.65909 4.54545 6.65909Q5.39773 6.65909 5.89489 6.94034Q6.39205 7.22159 6.65625 7.5767Q6.92045 7.93182 7.06818 8.15909L7.22727 8.15909L7.22727 6.77273L8.52273 6.77273L8.52273 18.7727L7.18182 18.7727ZM4.70455 14.4773Q5.91477 14.4773 6.55966 13.5483Q7.20455 12.6193 7.20455 11.1364Q7.20455 9.67045 6.56818 8.76705Q5.93182 7.86364 4.70455 7.86364Q3.85227 7.86364 3.28693 8.2983Q2.72159 8.73295 2.44034 9.47443Q2.15909 10.2159 2.15909 11.1364Q2.15909 12.0682 2.44602 12.8267Q2.73295 13.5852 3.2983 14.0313Q3.86364 14.4773 4.70455 14.4773ZM16.4773 11.9318L16.4773 6.77273L17.8182 6.77273L17.8182 15.5L16.4773 15.5L16.4773 14.0227L16.3864 14.0227Q16.0795 14.6875 15.4318 15.1506Q14.7841 15.6136 13.7955 15.6136Q12.5682 15.6136 11.7727 14.8011Q10.9773 13.9886 10.9773 12.3182L10.9773 6.77273L12.3182 6.77273L12.3182 12.2273Q12.3182 13.1818 12.8551 13.75Q13.392 14.3182 14.2273 14.3182Q14.7273 14.3182 15.2472 14.0625Q15.767 13.8068 16.1222 13.2784Q16.4773 12.75 16.4773 11.9318ZM22.8409 15.7045Q22.0114 15.7045 21.3352 15.3892Q20.6591 15.0739 20.2614 14.4744Q19.8636 13.875 19.8636 13.0227Q19.8636 12.2727 20.1591 11.804Q20.4545 11.3352 20.9489 11.0682Q21.4432 10.8011 22.0426 10.6676Q22.642 10.5341 23.25 10.4545Q24.0455 10.3523 24.5426 10.2983Q25.0398 10.2443 25.2699 10.1136Q25.5 9.98295 25.5 9.65909L25.5 9.61364Q25.5 8.77273 25.0426 8.30682Q24.5852 7.84091 23.6591 7.84091Q22.6989 7.84091 22.1534 8.26136Q21.608 8.68182 21.3864 9.15909L20.1136 8.70455Q20.4545 7.90909 21.0256 7.46307Q21.5966 7.01705 22.2756 6.83807Q22.9545 6.65909 23.6136 6.65909Q24.0341 6.65909 24.5824 6.75852Q25.1307 6.85795 25.6449 7.16477Q26.1591 7.47159 26.5 8.09091Q26.8409 8.71023 26.8409 9.75L26.8409 15.5L25.5 15.5L25.5 14.3182L25.4318 14.3182Q25.2955 14.6023 24.9773 14.9261Q24.6591 15.25 24.1307 15.4773Q23.6023 15.7045 22.8409 15.7045ZM23.0455 14.5Q23.8409 14.5 24.3892 14.1875Q24.9375 13.875 25.2188 13.3807Q25.5 12.8864 25.5 12.3409L25.5 11.1136Q25.4148 11.2159 25.1278 11.2983Q24.8409 11.3807 24.4688 11.4403Q24.0966 11.5 23.7472 11.5426Q23.3977 11.5852 23.1818 11.6136Q22.6591 11.6818 22.2074 11.8324Q21.7557 11.983 21.4801 12.2813Q21.2045 12.5795 21.2045 13.0909Q21.2045 13.7898 21.7244 14.1449Q22.2443 14.5 23.0455 14.5ZM35.4773 8.72727L34.2727 9.06818Q34.0966 8.61364 33.6818 8.21591Q33.267 7.81818 32.3864 7.81818Q31.5852 7.81818 31.054 8.18466Q30.5227 8.55114 30.5227 9.11364Q30.5227 9.61364 30.8864 9.90341Q31.25 10.1932 32.0227 10.3864L33.3182 10.7045Q35.6364 11.2727 35.6364 13.0682Q35.6364 13.8182 35.2074 14.4091Q34.7784 15 34.0114 15.3409Q33.2443 15.6818 32.2273 15.6818Q30.892 15.6818 30.017 15.1023Q29.142 14.5227 28.9091 13.4091L30.1818 13.0909Q30.5398 14.5 32.2045 14.5Q33.142 14.5 33.696 14.0994Q34.25 13.6989 34.25 13.1364Q34.25 12.2102 32.9545 11.9091L31.5 11.5682Q30.3011 11.2841 29.7415 10.6847Q29.1818 10.0852 29.1818 9.18182Q29.1818 8.44318 29.5994 7.875Q30.017 7.30682 30.7415 6.98295Q31.4659 6.65909 32.3864 6.65909Q33.6818 6.65909 34.4233 7.22727Q35.1648 7.79545 35.4773 8.72727ZM41.3182 15.6818Q40.0568 15.6818 39.1449 15.1222Q38.233 14.5625 37.7415 13.554Q37.25 12.5455 37.25 11.2045Q37.25 9.86364 37.7415 8.83807Q38.233 7.8125 39.1165 7.2358Q40 6.65909 41.1818 6.65909Q41.8636 6.65909 42.5284 6.88636Q43.1932 7.11364 43.7386 7.62216Q44.2841 8.13068 44.608 8.96591Q44.9318 9.80114 44.9318 11.0227L44.9318 11.5909L38.5966 11.5909Q38.642 12.9886 39.3892 13.733Q40.1364 14.4773 41.3182 14.4773Q42.108 14.4773 42.6761 14.1364Q43.2443 13.7955 43.5 13.1136L44.7955 13.4773Q44.4886 14.4659 43.5682 15.0739Q42.6477 15.6818 41.3182 15.6818ZM38.5966 10.4318L43.5682 10.4318Q43.5682 9.32386 42.9205 8.59375Q42.2727 7.86364 41.1818 7.86364Q40.4148 7.86364 39.8523 8.22159Q39.2898 8.57955 38.9659 9.16761Q38.642 9.75568 38.5966 10.4318ZM54.0455 15.7045Q53.2159 15.7045 52.5398 15.3892Q51.8636 15.0739 51.4659 14.4744Q51.0682 13.875 51.0682 13.0227Q51.0682 12.2727 51.3636 11.804Q51.6591 11.3352 52.1534 11.0682Q52.6477 10.8011 53.2472 10.6676Q53.8466 10.5341 54.4545 10.4545Q55.25 10.3523 55.7472 10.2983Q56.2443 10.2443 56.4744 10.1136Q56.7045 9.98295 56.7045 9.65909L56.7045 9.61364Q56.7045 8.77273 56.2472 8.30682Q55.7898 7.84091 54.8636 7.84091Q53.9034 7.84091 53.358 8.26136Q52.8125 8.68182 52.5909 9.15909L51.3182 8.70455Q51.6591 7.90909 52.2301 7.46307Q52.8011 7.01705 53.4801 6.83807Q54.1591 6.65909 54.8182 6.65909Q55.2386 6.65909 55.7869 6.75852Q56.3352 6.85795 56.8494 7.16477Q57.3636 7.47159 57.7045 8.09091Q58.0455 8.71023 58.0455 9.75L58.0455 15.5L56.7045 15.5L56.7045 14.3182L56.6364 14.3182Q56.5 14.6023 56.1818 14.9261Q55.8636 15.25 55.3352 15.4773Q54.8068 15.7045 54.0455 15.7045ZM54.25 14.5Q55.0455 14.5 55.5938 14.1875Q56.142 13.875 56.4233 13.3807Q56.7045 12.8864 56.7045 12.3409L56.7045 11.1136Q56.6193 11.2159 56.3324 11.2983Q56.0455 11.3807 55.6733 11.4403Q55.3011 11.5 54.9517 11.5426Q54.6023 11.5852 54.3864 11.6136Q53.8636 11.6818 53.4119 11.8324Q52.9602 11.983 52.6847 12.2813Q52.4091 12.5795 52.4091 13.0909Q52.4091 13.7898 52.929 14.1449Q53.4489 14.5 54.25 14.5ZM64.0455 15.6818Q62.8182 15.6818 61.9318 15.1023Q61.0455 14.5227 60.5682 13.5057Q60.0909 12.4886 60.0909 11.1818Q60.0909 9.85227 60.5824 8.83239Q61.0739 7.8125 61.9574 7.2358Q62.8409 6.65909 64.0227 6.65909Q64.9432 6.65909 65.6818 7Q66.4205 7.34091 66.892 7.95455Q67.3636 8.56818 67.4773 9.38636L66.1364 9.38636Q65.983 8.78977 65.4574 8.3267Q64.9318 7.86364 64.0455 7.86364Q62.8693 7.86364 62.1506 8.75852Q61.4318 9.65341 61.4318 11.1364Q61.4318 12.6534 62.142 13.5653Q62.8523 14.4773 64.0455 14.4773Q64.8295 14.4773 65.3892 14.0739Q65.9489 13.6705 66.1364 12.9545L67.4773 12.9545Q67.3636 13.7273 66.9176 14.3438Q66.4716 14.9602 65.7415 15.321Q65.0114 15.6818 64.0455 15.6818ZM72 15.7045Q71.1705 15.7045 70.4943 15.3892Q69.8182 15.0739 69.4205 14.4744Q69.0227 13.875 69.0227 13.0227Q69.0227 12.2727 69.3182 11.804Q69.6136 11.3352 70.108 11.0682Q70.6023 10.8011 71.2017 10.6676Q71.8011 10.5341 72.4091 10.4545Q73.2045 10.3523 73.7017 10.2983Q74.1989 10.2443 74.429 10.1136Q74.6591 9.98295 74.6591 9.65909L74.6591 9.61364Q74.6591 8.77273 74.2017 8.30682Q73.7443 7.84091 72.8182 7.84091Q71.858 7.84091 71.3125 8.26136Q70.767 8.68182 70.5455 9.15909L69.2727 8.70455Q69.6136 7.90909 70.1847 7.46307Q70.7557 7.01705 71.4347 6.83807Q72.1136 6.65909 72.7727 6.65909Q73.1932 6.65909 73.7415 6.75852Q74.2898 6.85795 74.804 7.16477Q75.3182 7.47159 75.6591 8.09091Q76 8.71023 76 9.75L76 15.5L74.6591 15.5L74.6591 14.3182L74.5909 14.3182Q74.4545 14.6023 74.1364 14.9261Q73.8182 15.25 73.2898 15.4773Q72.7614 15.7045 72 15.7045ZM72.2045 14.5Q73 14.5 73.5483 14.1875Q74.0966 13.875 74.3778 13.3807Q74.6591 12.8864 74.6591 12.3409L74.6591 11.1136Q74.5739 11.2159 74.2869 11.2983Q74 11.3807 73.6278 11.4403Q73.2557 11.5 72.9063 11.5426Q72.5568 11.5852 72.3409 11.6136Q71.8182 11.6818 71.3665 11.8324Q70.9148 11.983 70.6392 12.2813Q70.3636 12.5795 70.3636 13.0909Q70.3636 13.7898 70.8835 14.1449Q71.4034 14.5 72.2045 14.5ZM78.6364 15.5L78.6364 3.86364L79.9773 3.86364L79.9773 8.15909L80.0909 8.15909Q80.2386 7.93182 80.5028 7.5767Q80.767 7.22159 81.2642 6.94034Q81.7614 6.65909 82.6136 6.65909Q83.7159 6.65909 84.5568 7.21023Q85.3977 7.76136 85.8693 8.77273Q86.3409 9.78409 86.3409 11.1591Q86.3409 12.5455 85.8693 13.5597Q85.3977 14.5739 84.5625 15.1278Q83.7273 15.6818 82.6364 15.6818Q81.7955 15.6818 81.2898 15.4006Q80.7841 15.1193 80.5114 14.7585Q80.2386 14.3977 80.0909 14.1591L79.9318 14.1591L79.9318 15.5L78.6364 15.5ZM79.9545 11.1364Q79.9545 12.6193 80.5994 13.5483Q81.2443 14.4773 82.4545 14.4773Q83.2955 14.4773 83.8608 14.0313Q84.4261 13.5852 84.7131 12.8267Q85 12.0682 85 11.1364Q85 10.2159 84.7188 9.47443Q84.4375 8.73295 83.8722 8.2983Q83.3068 7.86364 82.4545 7.86364Q81.2273 7.86364 80.5909 8.76705Q79.9545 9.67045 79.9545 11.1364ZM90.9545 15.7045Q90.125 15.7045 89.4489 15.3892Q88.7727 15.0739 88.375 14.4744Q87.9773 13.875 87.9773 13.0227Q87.9773 12.2727 88.2727 11.804Q88.5682 11.3352 89.0625 11.0682Q89.5568 10.8011 90.1563 10.6676Q90.7557 10.5341 91.3636 10.4545Q92.1591 10.3523 92.6563 10.2983Q93.1534 10.2443 93.3835 10.1136Q93.6136 9.98295 93.6136 9.65909L93.6136 9.61364Q93.6136 8.77273 93.1563 8.30682Q92.6989 7.84091 91.7727 7.84091Q90.8125 7.84091 90.267 8.26136Q89.7216 8.68182 89.5 9.15909L88.2273 8.70455Q88.5682 7.90909 89.1392 7.46307Q89.7102 7.01705 90.3892 6.83807Q91.0682 6.65909 91.7273 6.65909Q92.1477 6.65909 92.696 6.75852Q93.2443 6.85795 93.7585 7.16477Q94.2727 7.47159 94.6136 8.09091Q94.9545 8.71023 94.9545 9.75L94.9545 15.5L93.6136 15.5L93.6136 14.3182L93.5455 14.3182Q93.4091 14.6023 93.0909 14.9261Q92.7727 15.25 92.2443 15.4773Q91.7159 15.7045 90.9545 15.7045ZM91.1591 14.5Q91.9545 14.5 92.5028 14.1875Q93.0511 13.875 93.3324 13.3807Q93.6136 12.8864 93.6136 12.3409L93.6136 11.1136Q93.5284 11.2159 93.2415 11.2983Q92.9545 11.3807 92.5824 11.4403Q92.2102 11.5 91.8608 11.5426Q91.5114 11.5852 91.2955 11.6136Q90.7727 11.6818 90.321 11.8324Q89.8693 11.983 89.5938 12.2813Q89.3182 12.5795 89.3182 13.0909Q89.3182 13.7898 89.8381 14.1449Q90.3579 14.5 91.1591 14.5ZM98.75 10.25L98.75 15.5L97.4091 15.5L97.4091 6.77273L98.7045 6.77273L98.7045 8.13636L98.8182 8.13636Q99.125 7.47159 99.75 7.06534Q100.375 6.65909 101.364 6.65909Q102.688 6.65909 103.503 7.47159Q104.318 8.28409 104.318 9.95455L104.318 15.5L102.977 15.5L102.977 10.0455Q102.977 9.01705 102.443 8.44034Q101.909 7.86364 100.977 7.86364Q100.017 7.86364 99.3835 8.4858Q98.75 9.10795 98.75 10.25ZM110.068 15.6818Q108.977 15.6818 108.142 15.1278Q107.307 14.5739 106.835 13.5597Q106.364 12.5455 106.364 11.1591Q106.364 9.78409 106.835 8.77273Q107.307 7.76136 108.148 7.21023Q108.989 6.65909 110.091 6.65909Q110.943 6.65909 111.44 6.94034Q111.938 7.22159 112.202 7.5767Q112.466 7.93182 112.614 8.15909L112.727 8.15909L112.727 3.86364L114.068 3.86364L114.068 15.5L112.773 15.5L112.773 14.1591L112.614 14.1591Q112.466 14.3977 112.193 14.7585Q111.92 15.1193 111.415 15.4006Q110.909 15.6818 110.068 15.6818ZM110.25 14.4773Q111.46 14.4773 112.105 13.5483Q112.75 12.6193 112.75 11.1364Q112.75 9.67045 112.114 8.76705Q111.477 7.86364 110.25 7.86364Q109.398 7.86364 108.832 8.2983Q108.267 8.73295 107.986 9.47443Q107.705 10.2159 107.705 11.1364Q107.705 12.0682 107.991 12.8267Q108.278 13.5852 108.844 14.0313Q109.409 14.4773 110.25 14.4773ZM120.25 15.6818Q119.068 15.6818 118.179 15.1193Q117.29 14.5568 116.793 13.5455Q116.295 12.5341 116.295 11.1818Q116.295 9.81818 116.793 8.80114Q117.29 7.78409 118.179 7.22159Q119.068 6.65909 120.25 6.65909Q121.432 6.65909 122.321 7.22159Q123.21 7.78409 123.707 8.80114Q124.205 9.81818 124.205 11.1818Q124.205 12.5341 123.707 13.5455Q123.21 14.5568 122.321 15.1193Q121.432 15.6818 120.25 15.6818ZM120.25 14.4773Q121.148 14.4773 121.727 14.017Q122.307 13.5568 122.585 12.8068Q122.864 12.0568 122.864 11.1818Q122.864 10.3068 122.585 9.55114Q122.307 8.79546 121.727 8.32955Q121.148 7.86364 120.25 7.86364Q119.352 7.86364 118.773 8.32955Q118.193 8.79546 117.915 9.55114Q117.636 10.3068 117.636 11.1818Q117.636 12.0568 117.915 12.8068Q118.193 13.5568 118.773 14.017Q119.352 14.4773 120.25 14.4773ZM127.227 15.5909Q126.807 15.5909 126.506 15.2898Q126.205 14.9886 126.205 14.5682Q126.205 14.1477 126.506 13.8466Q126.807 13.5455 127.227 13.5455Q127.648 13.5455 127.949 13.8466Q128.25 14.1477 128.25 14.5682Q128.25 14.9886 127.949 15.2898Q127.648 15.5909 127.227 15.5909ZM144.568 3.86364L144.568 15.5L143.205 15.5L136.864 6.36364L136.75 6.36364L136.75 15.5L135.341 15.5L135.341 3.86364L136.705 3.86364L143.068 13.0227L143.182 13.0227L143.182 3.86364L144.568 3.86364ZM149.773 15.7045Q148.943 15.7045 148.267 15.3892Q147.591 15.0739 147.193 14.4744Q146.795 13.875 146.795 13.0227Q146.795 12.2727 147.091 11.804Q147.386 11.3352 147.881 11.0682Q148.375 10.8011 148.974 10.6676Q149.574 10.5341 150.182 10.4545Q150.977 10.3523 151.474 10.2983Q151.972 10.2443 152.202 10.1136Q152.432 9.98295 152.432 9.65909L152.432 9.61364Q152.432 8.77273 151.974 8.30682Q151.517 7.84091 150.591 7.84091Q149.631 7.84091 149.085 8.26136Q148.54 8.68182 148.318 9.15909L147.045 8.70455Q147.386 7.90909 147.957 7.46307Q148.528 7.01705 149.207 6.83807Q149.886 6.65909 150.545 6.65909Q150.966 6.65909 151.514 6.75852Q152.063 6.85795 152.577 7.16477Q153.091 7.47159 153.432 8.09091Q153.773 8.71023 153.773 9.75L153.773 15.5L152.432 15.5L152.432 14.3182L152.364 14.3182Q152.227 14.6023 151.909 14.9261Q151.591 15.25 151.063 15.4773Q150.534 15.7045 149.773 15.7045ZM149.977 14.5Q150.773 14.5 151.321 14.1875Q151.869 13.875 152.151 13.3807Q152.432 12.8864 152.432 12.3409L152.432 11.1136Q152.347 11.2159 152.06 11.2983Q151.773 11.3807 151.401 11.4403Q151.028 11.5 150.679 11.5426Q150.33 11.5852 150.114 11.6136Q149.591 11.6818 149.139 11.8324Q148.688 11.983 148.412 12.2813Q148.136 12.5795 148.136 13.0909Q148.136 13.7898 148.656 14.1449Q149.176 14.5 149.977 14.5ZM148.886 5.72727L147.841 5.68182Q147.841 4.8125 148.338 4.25852Q148.835 3.70455 149.568 3.70455Q150 3.70455 150.31 3.88636Q150.619 4.06818 150.923 4.25Q151.227 4.43182 151.636 4.43182Q151.96 4.43182 152.185 4.17898Q152.409 3.92614 152.409 3.56818L153.432 3.65909Q153.432 4.54545 152.935 5.06818Q152.438 5.59091 151.705 5.59091Q151.313 5.59091 151.057 5.48011Q150.801 5.36932 150.602 5.22727Q150.403 5.08523 150.182 4.97443Q149.96 4.86364 149.636 4.86364Q149.313 4.86364 149.099 5.11648Q148.886 5.36932 148.886 5.72727ZM159.773 15.6818Q158.591 15.6818 157.702 15.1193Q156.813 14.5568 156.315 13.5455Q155.818 12.5341 155.818 11.1818Q155.818 9.81818 156.315 8.80114Q156.813 7.78409 157.702 7.22159Q158.591 6.65909 159.773 6.65909Q160.955 6.65909 161.844 7.22159Q162.733 7.78409 163.23 8.80114Q163.727 9.81818 163.727 11.1818Q163.727 12.5341 163.23 13.5455Q162.733 14.5568 161.844 15.1193Q160.955 15.6818 159.773 15.6818ZM159.773 14.4773Q160.67 14.4773 161.25 14.017Q161.83 13.5568 162.108 12.8068Q162.386 12.0568 162.386 11.1818Q162.386 10.3068 162.108 9.55114Q161.83 8.79546 161.25 8.32955Q160.67 7.86364 159.773 7.86364Q158.875 7.86364 158.295 8.32955Q157.716 8.79546 157.438 9.55114Q157.159 10.3068 157.159 11.1818Q157.159 12.0568 157.438 12.8068Q157.716 13.5568 158.295 14.017Q158.875 14.4773 159.773 14.4773ZM170.273 18.7727L170.273 6.77273L171.568 6.77273L171.568 8.15909L171.727 8.15909Q171.875 7.93182 172.139 7.5767Q172.403 7.22159 172.901 6.94034Q173.398 6.65909 174.25 6.65909Q175.352 6.65909 176.193 7.21023Q177.034 7.76136 177.506 8.77273Q177.977 9.78409 177.977 11.1591Q177.977 12.5455 177.506 13.5597Q177.034 14.5739 176.199 15.1278Q175.364 15.6818 174.273 15.6818Q173.432 15.6818 172.926 15.4006Q172.42 15.1193 172.148 14.7585Q171.875 14.3977 171.727 14.1591L171.614 14.1591L171.614 18.7727L170.273 18.7727ZM171.591 11.1364Q171.591 12.6193 172.236 13.5483Q172.881 14.4773 174.091 14.4773Q174.932 14.4773 175.497 14.0313Q176.063 13.5852 176.349 12.8267Q176.636 12.0682 176.636 11.1364Q176.636 10.2159 176.355 9.47443Q176.074 8.73295 175.509 8.2983Q174.943 7.86364 174.091 7.86364Q172.864 7.86364 172.227 8.76705Q171.591 9.67045 171.591 11.1364ZM183.682 15.6818Q182.42 15.6818 181.509 15.1222Q180.597 14.5625 180.105 13.554Q179.614 12.5455 179.614 11.2045Q179.614 9.86364 180.105 8.83807Q180.597 7.8125 181.48 7.2358Q182.364 6.65909 183.545 6.65909Q184.227 6.65909 184.892 6.88636Q185.557 7.11364 186.102 7.62216Q186.648 8.13068 186.972 8.96591Q187.295 9.80114 187.295 11.0227L187.295 11.5909L180.96 11.5909Q181.006 12.9886 181.753 13.733Q182.5 14.4773 183.682 14.4773Q184.472 14.4773 185.04 14.1364Q185.608 13.7955 185.864 13.1136L187.159 13.4773Q186.852 14.4659 185.932 15.0739Q185.011 15.6818 183.682 15.6818ZM180.96 10.4318L185.932 10.4318Q185.932 9.32386 185.284 8.59375Q184.636 7.86364 183.545 7.86364Q182.778 7.86364 182.216 8.22159Q181.653 8.57955 181.33 9.16761Q181.006 9.75568 180.96 10.4318ZM189.341 15.5L189.341 6.77273L190.636 6.77273L190.636 8.09091L190.727 8.09091Q190.966 7.44318 191.591 7.03977Q192.216 6.63636 193 6.63636Q193.148 6.63636 193.369 6.64205Q193.591 6.64773 193.705 6.65909L193.705 8.02273Q193.636 8.00568 193.395 7.96875Q193.153 7.93182 192.886 7.93182Q191.932 7.93182 191.307 8.51136Q190.682 9.09091 190.682 9.97727L190.682 15.5L189.341 15.5ZM198.568 15.6818Q197.341 15.6818 196.455 15.1023Q195.568 14.5227 195.091 13.5057Q194.614 12.4886 194.614 11.1818Q194.614 9.85227 195.105 8.83239Q195.597 7.8125 196.48 7.2358Q197.364 6.65909 198.545 6.65909Q199.466 6.65909 200.205 7Q200.943 7.34091 201.415 7.95455Q201.886 8.56818 202 9.38636L200.659 9.38636Q200.506 8.78977 199.98 8.3267Q199.455 7.86364 198.568 7.86364Q197.392 7.86364 196.673 8.75852Q195.955 9.65341 195.955 11.1364Q195.955 12.6534 196.665 13.5653Q197.375 14.4773 198.568 14.4773Q199.352 14.4773 199.912 14.0739Q200.472 13.6705 200.659 12.9545L202 12.9545Q201.886 13.7273 201.44 14.3438Q200.994 14.9602 200.264 15.321Q199.534 15.6818 198.568 15.6818ZM206.523 15.7045Q205.693 15.7045 205.017 15.3892Q204.341 15.0739 203.943 14.4744Q203.545 13.875 203.545 13.0227Q203.545 12.2727 203.841 11.804Q204.136 11.3352 204.631 11.0682Q205.125 10.8011 205.724 10.6676Q206.324 10.5341 206.932 10.4545Q207.727 10.3523 208.224 10.2983Q208.722 10.2443 208.952 10.1136Q209.182 9.98295 209.182 9.65909L209.182 9.61364Q209.182 8.77273 208.724 8.30682Q208.267 7.84091 207.341 7.84091Q206.381 7.84091 205.835 8.26136Q205.29 8.68182 205.068 9.15909L203.795 8.70455Q204.136 7.90909 204.707 7.46307Q205.278 7.01705 205.957 6.83807Q206.636 6.65909 207.295 6.65909Q207.716 6.65909 208.264 6.75852Q208.813 6.85795 209.327 7.16477Q209.841 7.47159 210.182 8.09091Q210.523 8.71023 210.523 9.75L210.523 15.5L209.182 15.5L209.182 14.3182L209.114 14.3182Q208.977 14.6023 208.659 14.9261Q208.341 15.25 207.813 15.4773Q207.284 15.7045 206.523 15.7045ZM206.727 14.5Q207.523 14.5 208.071 14.1875Q208.619 13.875 208.901 13.3807Q209.182 12.8864 209.182 12.3409L209.182 11.1136Q209.097 11.2159 208.81 11.2983Q208.523 11.3807 208.151 11.4403Q207.778 11.5 207.429 11.5426Q207.08 11.5852 206.864 11.6136Q206.341 11.6818 205.889 11.8324Q205.438 11.983 205.162 12.2813Q204.886 12.5795 204.886 13.0909Q204.886 13.7898 205.406 14.1449Q205.926 14.5 206.727 14.5ZM221.273 6.77273L221.273 7.90909L219.409 7.90909L219.409 13Q219.409 13.5682 219.577 13.8494Q219.744 14.1307 220.009 14.2244Q220.273 14.3182 220.568 14.3182Q220.79 14.3182 220.932 14.2926Q221.074 14.267 221.159 14.25L221.432 15.4545Q221.295 15.5057 221.051 15.5597Q220.807 15.6136 220.432 15.6136Q219.864 15.6136 219.321 15.3693Q218.778 15.125 218.423 14.625Q218.068 14.125 218.068 13.3636L218.068 7.90909L216.75 7.90909L216.75 6.77273L218.068 6.77273L218.068 4.68182L219.409 4.68182L219.409 6.77273L221.273 6.77273ZM226.864 15.6818Q225.602 15.6818 224.69 15.1222Q223.778 14.5625 223.287 13.554Q222.795 12.5455 222.795 11.2045Q222.795 9.86364 223.287 8.83807Q223.778 7.8125 224.662 7.2358Q225.545 6.65909 226.727 6.65909Q227.409 6.65909 228.074 6.88636Q228.739 7.11364 229.284 7.62216Q229.83 8.13068 230.153 8.96591Q230.477 9.80114 230.477 11.0227L230.477 11.5909L224.142 11.5909Q224.188 12.9886 224.935 13.733Q225.682 14.4773 226.864 14.4773Q227.653 14.4773 228.222 14.1364Q228.79 13.7955 229.045 13.1136L230.341 13.4773Q230.034 14.4659 229.114 15.0739Q228.193 15.6818 226.864 15.6818ZM224.142 10.4318L229.114 10.4318Q229.114 9.32386 228.466 8.59375Q227.818 7.86364 226.727 7.86364Q225.96 7.86364 225.398 8.22159Q224.835 8.57955 224.511 9.16761Q224.188 9.75568 224.142 10.4318ZM232.523 15.5L232.523 6.77273L233.818 6.77273L233.818 8.13636L233.932 8.13636Q234.205 7.4375 234.813 7.0483Q235.42 6.65909 236.273 6.65909Q237.136 6.65909 237.713 7.0483Q238.29 7.4375 238.614 8.13636L238.705 8.13636Q239.04 7.46023 239.71 7.05966Q240.381 6.65909 241.318 6.65909Q242.489 6.65909 243.233 7.3892Q243.977 8.11932 243.977 9.65909L243.977 15.5L242.636 15.5L242.636 9.65909Q242.636 8.69318 242.108 8.27841Q241.58 7.86364 240.864 7.86364Q239.943 7.86364 239.438 8.41761Q238.932 8.97159 238.932 9.81818L238.932 15.5L237.568 15.5L237.568 9.52273Q237.568 8.77841 237.085 8.32102Q236.602 7.86364 235.841 7.86364Q235.318 7.86364 234.866 8.14205Q234.415 8.42046 234.139 8.91193Q233.864 9.40341 233.864 10.0455L233.864 15.5L232.523 15.5ZM246.432 18.7727L246.432 6.77273L247.727 6.77273L247.727 8.15909L247.886 8.15909Q248.034 7.93182 248.298 7.5767Q248.563 7.22159 249.06 6.94034Q249.557 6.65909 250.409 6.65909Q251.511 6.65909 252.352 7.21023Q253.193 7.76136 253.665 8.77273Q254.136 9.78409 254.136 11.1591Q254.136 12.5455 253.665 13.5597Q253.193 14.5739 252.358 15.1278Q251.523 15.6818 250.432 15.6818Q249.591 15.6818 249.085 15.4006Q248.58 15.1193 248.307 14.7585Q248.034 14.3977 247.886 14.1591L247.773 14.1591L247.773 18.7727L246.432 18.7727ZM247.75 11.1364Q247.75 12.6193 248.395 13.5483Q249.04 14.4773 250.25 14.4773Q251.091 14.4773 251.656 14.0313Q252.222 13.5852 252.509 12.8267Q252.795 12.0682 252.795 11.1364Q252.795 10.2159 252.514 9.47443Q252.233 8.73295 251.668 8.2983Q251.102 7.86364 250.25 7.86364Q249.023 7.86364 248.386 8.76705Q247.75 9.67045 247.75 11.1364ZM259.727 15.6818Q258.545 15.6818 257.656 15.1193Q256.767 14.5568 256.27 13.5455Q255.773 12.5341 255.773 11.1818Q255.773 9.81818 256.27 8.80114Q256.767 7.78409 257.656 7.22159Q258.545 6.65909 259.727 6.65909Q260.909 6.65909 261.798 7.22159Q262.688 7.78409 263.185 8.80114Q263.682 9.81818 263.682 11.1818Q263.682 12.5341 263.185 13.5455Q262.688 14.5568 261.798 15.1193Q260.909 15.6818 259.727 15.6818ZM259.727 14.4773Q260.625 14.4773 261.205 14.017Q261.784 13.5568 262.063 12.8068Q262.341 12.0568 262.341 11.1818Q262.341 10.3068 262.063 9.55114Q261.784 8.79546 261.205 8.32955Q260.625 7.86364 259.727 7.86364Q258.83 7.86364 258.25 8.32955Q257.67 8.79546 257.392 9.55114Q257.114 10.3068 257.114 11.1818Q257.114 12.0568 257.392 12.8068Q257.67 13.5568 258.25 14.017Q258.83 14.4773 259.727 14.4773ZM267.5 3.86364L267.386 12.2273L266.068 12.2273L265.955 3.86364L267.5 3.86364ZM266.727 15.5909Q266.307 15.5909 266.006 15.2898Q265.705 14.9886 265.705 14.5682Q265.705 14.1477 266.006 13.8466Q266.307 13.5455 266.727 13.5455Q267.148 13.5455 267.449 13.8466Q267.75 14.1477 267.75 14.5682Q267.75 14.9886 267.449 15.2898Q267.148 15.5909 266.727 15.5909Z" transform="translate(0 29.318)" style="fill:#E6E6E6;" />
    </g>
  </g>
</svg>